<?xml version="1.0" standalone="no"?>
<!DOCTYPE svg PUBLIC "-//W3C//DTD SVG 20010904//EN"
 "http://www.w3.org/TR/2001/REC-SVG-20010904/DTD/svg10.dtd">
<svg version="1.0" xmlns="http://www.w3.org/2000/svg"
 width="700.000000pt" height="700.000000pt" viewBox="0 0 700.000000 700.000000"
 preserveAspectRatio="xMidYMid meet">
<metadata>
Created by potrace 1.11, written by Peter Selinger 2001-2013
</metadata>
<g transform="translate(0.000000,700.000000) scale(0.100000,-0.100000)"
fill="#000000" stroke="none">
<path d="M3471 6563 c-141 -242 -134 -233 -189 -233 -62 0 -236 -24 -366 -51
-729 -151 -1381 -598 -1796 -1231 -188 -286 -330 -629 -399 -964 -46 -224 -55
-319 -55 -584 0 -265 9 -360 55 -584 151 -729 597 -1381 1231 -1796 406 -266
886 -424 1386 -455 l112 -8 0 -181 0 -181 108 185 107 185 40 2 c85 5 225 25
349 49 745 146 1404 592 1826 1236 188 286 330 629 399 964 46 224 55 319 55
584 0 265 -9 360 -55 584 -151 729 -597 1381 -1231 1796 -406 266 -886 424
-1385 455 l-113 8 -2 174 -3 174 -74 -128z m329 -982 c464 -70 858 -268 1185
-596 162 -161 312 -367 392 -537 l23 -48 -710 0 -711 0 -47 24 c-78 39 -171
67 -279 84 l-103 16 0 538 0 538 63 0 c34 0 118 -9 187 -19z m-1017 -193 c-36
-62 -349 -599 -696 -1193 -346 -594 -635 -1086 -642 -1093 -19 -21 -46 215
-46 404 1 562 216 1080 616 1479 171 172 336 291 550 398 86 43 255 114 277
116 4 1 -22 -50 -59 -111z m2802 -1612 c21 -145 21 -408 -1 -556 -66 -469
-268 -875 -599 -1205 -119 -120 -253 -227 -383 -307 -147 -90 -451 -225 -439
-195 3 9 1054 1810 1357 2327 25 41 45 68 47 60 1 -8 10 -64 18 -124z m-2507
-1205 c105 -45 159 -61 270 -79 l102 -16 0 -538 0 -538 -62 0 c-84 0 -289 32
-413 64 -193 49 -408 140 -577 244 -318 195 -630 535 -775 845 l-23 47 706 0
706 0 66 -29z"/>
</g>
</svg>
